<?xml version="1.0" encoding="UTF-8" standalone="no"?>
<!-- Created with Inkscape (http://www.inkscape.org/) -->

<svg
   width="210mm"
   height="297mm"
   viewBox="0 0 210 297"
   version="1.1"
   id="svg1"
   xml:space="preserve"
   inkscape:version="1.3.2 (091e20ef0f, 2023-11-25)"
   sodipodi:docname="wppt.svg"
   xmlns:inkscape="http://www.inkscape.org/namespaces/inkscape"
   xmlns:sodipodi="http://sodipodi.sourceforge.net/DTD/sodipodi-0.dtd"
   xmlns="http://www.w3.org/2000/svg"
   xmlns:svg="http://www.w3.org/2000/svg"><sodipodi:namedview
     id="namedview1"
     pagecolor="#ffffff"
     bordercolor="#000000"
     borderopacity="0.25"
     inkscape:showpageshadow="2"
     inkscape:pageopacity="0.0"
     inkscape:pagecheckerboard="0"
     inkscape:deskcolor="#d1d1d1"
     inkscape:document-units="mm"
     inkscape:zoom="0.67170314"
     inkscape:cx="580.61363"
     inkscape:cy="525.52977"
     inkscape:window-width="1680"
     inkscape:window-height="1018"
     inkscape:window-x="2580"
     inkscape:window-y="758"
     inkscape:window-maximized="1"
     inkscape:current-layer="layer1" /><defs
     id="defs1" /><g
     inkscape:label="Layer 1"
     inkscape:groupmode="layer"
     id="layer1"><path
       style="fill:#000000;stroke-width:1.33732"
       d="m 96.879061,242.85235 c -0.39372,-0.0451 -2.09649,-0.22335 -3.783915,-0.39619 -16.844454,-1.72525 -33.650388,-8.33594 -47.554623,-18.7058 -3.988221,-2.97444 -5.95143,-4.69102 -9.922676,-8.67613 -6.94966,-6.97394 -12.192466,-14.29139 -16.717389,-23.33267 -4.84105,-9.67292 -8.3826,-21.74791 -9.4483657,-32.21441 -0.177551,-1.74367 -0.363821,-3.47948 -0.413934,-3.85737 l -0.09112,-0.68707 1.1668447,1.1039 c 2.705176,2.55924 5.941239,4.77 10.125933,6.91765 1.974626,1.01342 2.591288,1.42465 2.593844,1.72973 0.0069,0.83654 1.708212,7.04644 2.851822,10.41002 3.585146,10.54461 8.796307,19.48995 16.281995,27.9493 6.661943,7.52848 13.897678,13.05065 23.177247,17.68846 4.629595,2.3138 7.740717,3.57816 13.080259,5.31582 l 2.106331,0.68546 1.75367,-1.66816 c 3.860931,-3.67263 5.72887,-5.78699 8.245128,-9.33279 3.969449,-5.59354 6.642359,-11.79875 7.903209,-18.34749 0.478,-2.48261 0.5466,-3.35616 0.55958,-7.12479 0.0107,-3.21586 -0.076,-4.83495 -0.3465,-6.44288 -1.27419,-7.5744 -3.87079,-13.12856 -8.144279,-17.42069 -2.9915,-3.00454 -5.570104,-4.63196 -9.340994,-5.89533 -2.684041,-0.89922 -5.149356,-1.22654 -9.245366,-1.22748 -4.98421,-0.001 -7.665553,0.35221 -18.672483,2.46069 -7.490405,1.43486 -9.853315,1.80012 -13.127506,2.02923 -6.289467,0.44013 -11.935451,-1.18077 -16.679123,-4.78836 -0.730767,-0.55575 -1.595384,-1.01249 -2.153391,-1.13755 -2.95929,-0.66318 -6.698126,-3.65823 -7.965744,-6.38106 -0.602457,-1.29407 -0.632434,-2.21744 -0.109389,-3.3695 0.590525,-1.3007 1.61054,-1.95714 10.033425,-6.45713 10.680956,-5.70641 20.653835,-11.15757 23.30299,-12.7374 5.78605,-3.45051 8.386074,-5.86406 13.102973,-12.16324 6.044308,-8.07185 11.055328,-12.418 18.505009,-16.04974 5.762454,-2.809214 10.426472,-4.158408 17.392508,-5.031261 2.95456,-0.370197 4.15336,-0.419223 7.976909,-0.326213 5.80454,0.141194 8.89556,0.623632 13.86901,2.164623 l 2.0059,0.621533 2.04396,-1.719016 c 4.87527,-4.100204 10.39902,-5.679885 18.18174,-5.199613 3.02611,0.186743 6.15708,0.685871 8.66025,1.380567 0.76957,0.213583 1.31488,0.303999 1.21179,0.200919 -0.50348,-0.503488 -5.51018,-2.836827 -7.31535,-3.40928 -7.68085,-2.435724 -15.14753,-1.316763 -22.17219,3.322728 -1.0947,0.722995 -1.8001,1.069079 -1.9431,0.953307 -0.12343,-0.0999 -0.62131,-0.314523 -1.10634,-0.476821 l -0.88186,-0.295092 1.24954,-1.156834 c 5.4613,-5.056212 11.52525,-7.8176 17.6952,-8.057996 5.4274,-0.211458 9.35334,1.05767 16.26061,5.256516 5.60366,3.40639 10.04229,5.198637 16.15836,6.52444 4.04484,0.876826 8.92937,1.4454 12.48296,1.45305 l 1.94937,0.004 1.54853,2.505559 c 3.23214,5.229714 4.92942,8.578204 7.17952,14.164124 4.07071,10.10558 6.3239,20.22424 7.13705,32.05108 0.5209,7.57635 -0.63352,18.39033 -2.89445,27.11339 -7.61159,29.36689 -27.88395,52.34022 -56.03804,63.50415 -8.21782,3.25863 -15.65628,5.11141 -24.95339,6.21545 -2.60471,0.30931 -14.906859,0.57297 -16.771959,0.35945 z m 13.499379,-13.04114 c 0.39374,-0.0569 1.31415,-0.15533 2.04537,-0.21884 3.86126,-0.3354 10.93461,-1.81923 15.31589,-3.21293 3.58538,-1.14051 8.47153,-3.05791 11.55673,-4.535 l 3.04419,-1.45745 -0.11264,-6.14128 c -0.12719,-6.93523 -0.54109,-11.15243 -1.69001,-17.22118 -2.29406,-12.1173 -6.45582,-23.14884 -11.7282,-31.08773 -3.87128,-5.82917 -7.19615,-8.98095 -12.02033,-11.39451 -2.13479,-1.06805 -4.08034,-1.69147 -8.66087,-2.77521 -4.06097,-0.96081 -6.97126,-1.97376 -8.313519,-2.89361 -1.21591,-0.83327 -4.78524,-4.49783 -5.43062,-5.5755 -1.081555,-1.80609 -6.54985,-7.35738 -8.594943,-8.72542 -0.755786,-0.50556 -1.37701,-0.96523 -1.380527,-1.02148 -0.004,-0.0563 0.752923,-0.36312 1.680942,-0.68194 3.262522,-1.12083 7.409371,-3.44933 10.319978,-5.79476 2.80736,-2.26225 6.037859,-5.09049 6.234789,-5.45845 0.22969,-0.42917 0.38116,-0.2684 -2.915289,-3.09407 -2.68486,-2.30145 -4.78091,-3.726 -7.24782,-4.9259 -3.237313,-1.57462 -4.863397,-1.96718 -8.626892,-2.08259 -3.399256,-0.10417 -5.25909,0.1517 -7.797392,1.07305 -0.745447,0.27058 -1.384826,0.4625 -1.420844,0.42649 -0.121977,-0.12197 3.927587,-2.7293 5.368429,-3.45646 3.018464,-1.52337 6.982621,-2.88488 10.913174,-3.7482 2.170454,-0.47671 2.762592,-0.52051 6.676925,-0.49372 3.714219,0.0254 4.775159,0.11032 7.842909,0.62748 2.32145,0.39138 3.9401,0.77777 4.68306,1.11792 0.62448,0.28589 1.51315,0.57622 1.97482,0.64518 1.29893,0.19399 5.75494,2.57477 7.70926,4.11893 4.23464,3.34595 6.47214,6.88898 6.81059,10.78437 0.20665,2.37842 -0.81491,5.67314 -2.44937,7.89971 -0.40277,0.54869 -0.68607,0.99761 -0.62958,0.99761 0.0566,0 0.52815,-0.18236 1.04809,-0.40523 4.71855,-2.0226 8.21317,-4.41172 11.56527,-7.90667 2.35393,-2.45426 3.68802,-5.10643 4.66706,-9.27821 0.1187,-0.50621 0.36342,-1.55177 0.54361,-2.32345 0.18019,-0.77168 0.54717,-1.83015 0.81549,-2.35216 0.54511,-1.06055 3.49539,-4.08251 4.72918,-4.84407 l 0.80094,-0.49441 -2.24989,0.069 c -1.81203,0.0556 -2.44894,0.16024 -3.27258,0.53779 -2.90622,1.33216 -4.11368,3.33732 -4.60963,7.65497 -0.42723,3.71948 -1.59745,6.46266 -3.57626,8.38335 -2.059,1.99852 -3.29574,3.03719 -4.09688,3.44076 l -0.80755,0.4068 0.65183,-0.68837 c 0.96305,-1.01703 1.37529,-2.3982 1.34518,-4.50669 -0.0228,-1.60174 -0.0984,-1.92294 -0.78232,-3.32542 -0.45896,-0.94126 -1.35036,-2.22931 -2.26418,-3.27175 -0.82896,-0.94562 -1.50721,-1.80534 -1.50721,-1.91049 0,-0.10511 0.90094,-1.0654 2.00207,-2.13389 4.86552,-4.7213 9.95687,-7.53203 15.85746,-8.754288 4.51685,-0.935629 6.58126,-1.0805 15.72529,-1.103582 4.80351,-0.01203 8.66924,-0.0761 8.5905,-0.14205 -0.0787,-0.06606 -1.24766,-0.318082 -2.59759,-0.560163 -10.11342,-1.813643 -18.30079,-2.28446 -23.82845,-1.370256 -6.25337,1.034216 -12.16934,3.973309 -17.00014,8.445779 l -1.19913,1.11019 -1.28057,-0.70164 c -2.83426,-1.55295 -8.39883,-3.51396 -12.01324,-4.23361 -6.1461,-1.22373 -13.283279,-1.07626 -20.218347,0.41773 -5.97899,1.28806 -12.982526,4.41327 -17.319481,7.72858 -2.680175,2.04881 -5.816908,5.3712 -8.999765,9.53247 -0.774403,1.01246 -1.827494,2.3107 -2.340201,2.88498 -0.512707,0.57427 -1.20832,1.43434 -1.545804,1.91126 -0.795777,1.12455 -3.303534,3.51224 -5.086634,4.8431 -2.745547,2.04921 -10.8255,6.59363 -25.59377,14.39475 -0.899958,0.47539 -2.20871,1.17877 -2.908336,1.56306 l -1.272049,0.6987 0.687693,0.90094 c 1.074506,1.40767 1.448628,2.60601 1.438792,4.60857 -0.0094,1.91106 -0.405971,3.38501 -1.242414,4.61758 -0.279301,0.41157 -0.480261,0.76736 -0.446578,0.79063 0.307116,0.21221 2.60705,1.07316 3.903226,1.46113 2.458443,0.73585 4.765189,0.97156 8.225643,0.84054 3.492634,-0.13226 3.494302,-0.13252 17.385562,-2.80842 9.674842,-1.8637 15.550591,-2.46609 20.15151,-2.06599 4.753497,0.41336 7.9622,1.27858 11.829243,3.18973 4.939919,2.44138 8.395541,5.31616 11.938561,9.93188 0.761979,0.99268 1.385419,1.86467 1.385419,1.93776 0,0.0732 0.27372,0.53073 0.60827,1.01697 2.19207,3.18609 4.30407,8.87221 5.34794,14.39829 0.65635,3.47451 0.76059,10.66427 0.21248,14.65359 -1.24674,9.07417 -6.91871,19.45303 -15.104234,27.63855 -1.908099,1.90811 -2.422619,2.53075 -2.154647,2.60742 0.447506,0.12798 4.895672,0.6988 7.306272,0.93749 1.83015,0.18121 12.029579,0.12945 13.397109,-0.068 z M 76.425464,128.3271 c -1.29369,-0.28589 -2.513236,-0.53561 -2.710102,-0.55494 -0.283815,-0.0278 -0.357099,-0.22732 -0.353887,-0.96317 0.0055,-1.26153 0.326155,-3.36448 0.707594,-4.64068 0.513859,-1.71926 2.307068,-4.14667 3.481343,-4.71261 0.337485,-0.16265 0.889732,-0.45045 1.227216,-0.63955 0.453483,-0.2541 1.093986,-0.341 2.454436,-0.33301 2.224602,0.0134 3.402418,0.42205 5.756927,1.99896 1.944688,1.30244 5.222161,3.85126 5.10409,3.96933 -0.0468,0.0468 -0.980362,-0.10885 -2.074489,-0.34585 -1.094139,-0.23706 -2.006392,-0.40498 -2.027227,-0.37317 -0.02086,0.0318 -0.1926,0.63172 -0.381698,1.33313 -1.263631,4.68716 -5.265088,6.56962 -11.184203,5.26156 z m 90.596126,71.62779 1.49627,-1.99945 -0.13752,-2.9024 c -0.48788,-10.29714 -1.65,-17.56696 -4.29795,-26.88656 -4.27822,-15.05748 -11.27928,-28.53294 -20.71542,-39.8725 -1.04868,-1.26022 -1.98544,-2.33999 -2.08168,-2.39947 -0.19195,-0.11863 -3.75592,3.41813 -3.72732,3.69887 0.0225,0.22062 1.41047,2.04964 2.01799,2.65921 0.25312,0.25397 0.46022,0.51546 0.46022,0.58114 0,0.0657 0.7229,1.05929 1.60647,2.20806 0.88357,1.14876 1.71656,2.29833 1.8511,2.5546 0.13546,0.25806 0.34537,0.40365 0.47046,0.32633 0.13294,-0.0822 0.16822,-0.0463 0.0857,0.0872 -0.0772,0.12477 0.17026,0.66822 0.54971,1.20768 2.02159,2.8741 5.19785,8.44213 7.19135,12.60662 5.49549,11.48018 8.60533,21.80106 10.42531,34.59935 0.71174,5.00491 0.92108,7.5661 1.07122,13.10588 l 0.12798,4.7199 1.05496,-1.14753 c 0.58024,-0.63115 1.72828,-2.04729 2.55124,-3.14698 z m 6.76614,-9.64507 c 0.58503,-1.01246 1.52241,-2.75336 2.08305,-3.86869 0.56065,-1.11532 1.19177,-2.26583 1.40249,-2.5567 0.21074,-0.29086 0.46905,-0.89699 0.57407,-1.34698 0.10498,-0.44999 0.62203,-1.8306 1.14898,-3.06803 1.56952,-3.68582 2.83486,-7.92213 3.9099,-13.09032 1.34002,-6.44195 1.45456,-7.50983 1.64131,-15.30282 0.13822,-5.76779 -0.0142,-8.85202 -0.65621,-13.27973 -0.15894,-1.0961 -0.28997,-2.38467 -0.2912,-2.86351 -0.001,-0.47884 -0.14665,-1.33083 -0.32321,-1.89331 -0.17656,-0.56247 -0.5919,-2.08115 -0.92297,-3.37484 -0.71859,-2.80786 -2.98015,-9.72757 -4.10414,-12.55743 -1.56689,-3.94492 -5.8572,-11.95984 -6.27891,-11.72987 -1.78975,0.97601 -5.7477,2.75012 -7.17829,3.21761 -3.72583,1.21756 -5.65733,1.51445 -9.92757,1.526 -2.1374,0.005 -4.40538,-0.0582 -5.03996,-0.14206 l -1.15376,-0.15256 -0.72296,1.52235 c -0.39764,0.83728 -1.24721,2.97687 -1.88795,4.75462 -0.64073,1.77775 -1.43334,3.76566 -1.76138,4.41759 l -0.59642,1.1853 0.46782,0.57639 c 0.2573,0.31701 1.26916,1.5324 2.2486,2.70087 11.58012,13.81513 19.59873,30.37304 23.76363,49.07031 1.01757,4.56812 1.80742,10.30275 2.29033,16.62896 0.0672,0.8802 0.15118,1.57051 0.18662,1.53401 0.0355,-0.0365 0.54309,-0.89471 1.12813,-1.90716 z M 21.743031,149.44431 c 1.821832,-0.9328 2.445544,-2.23946 1.396932,-2.92654 -0.407145,-0.26677 -0.858418,-0.3177 -2.151565,-0.24285 -1.348242,0.0781 -1.875596,0.21768 -2.995118,0.79306 -3.114272,1.6006 -2.565866,3.14649 1.059827,2.98754 1.269195,-0.0556 1.872666,-0.19276 2.689924,-0.61121 z M 9.1331093,143.39746 c 0,-0.32173 0.139222,-1.97323 0.309382,-3.67 C 10.859831,125.59423 15.84932,110.95285 23.444297,98.639964 29.060013,89.535823 37.63491,80.263689 47.013663,73.154144 56.143095,66.233603 67.766965,60.637274 79.1867,57.664389 c 4.573711,-1.190655 8.8119,-1.954531 14.931133,-2.691112 2.980898,-0.358816 14.458847,-0.361905 17.896897,-0.0053 6.93507,0.720306 12.35396,1.769981 17.79463,3.446937 15.80334,4.870969 30.04394,13.536121 41.0861,25.000174 3.03122,3.147044 7.77177,8.91364 7.52803,9.157393 -0.1865,0.186489 -4.66324,-0.318361 -7.60465,-0.857622 -7.85821,-1.440652 -11.75893,-2.989388 -17.07092,-6.777849 -6.3309,-4.515094 -9.50592,-6.448749 -15.04124,-9.160335 -8.86827,-4.344305 -16.80791,-6.730977 -25.97607,-7.808441 -4.39077,-0.516018 -14.817629,-0.523185 -18.81732,-0.01338 -10.136523,1.293119 -17.936526,3.64054 -26.777923,8.058852 -13.515887,6.754286 -23.046625,15.067056 -31.846202,27.776444 -5.468153,7.89776 -9.40312,17.45972 -11.939559,29.01312 -0.193836,0.88291 -0.392197,2.03342 -0.440806,2.5567 -0.04861,0.52328 -0.199693,1.05526 -0.335746,1.18219 -0.136053,0.12691 -3.054627,1.77146 -6.485719,3.65451 -3.431091,1.88305 -6.3257877,3.50498 -6.4326577,3.60428 -0.34926,0.3245 -0.521568,0.19088 -0.521568,-0.40442 z"
       id="path1" /></g></svg>
